<svg width="83" height="16" viewBox="0 0 83 16" fill="none" xmlns="http://www.w3.org/2000/svg">
<path d="M80.167 7.81712L70.167 7.81712" stroke="#46A358" stroke-width="1.5" stroke-linecap="round" stroke-linejoin="round"/>
<path d="M76.1338 3.8008C76.1338 3.8008 80.1671 5.9748 80.1671 7.81613C80.1671 9.6588 76.1338 11.8335 76.1338 11.8335" stroke="#46A358" stroke-width="1.5" stroke-linecap="round" stroke-linejoin="round"/>
<path d="M0.36 10.392C0.972 11.46 2.076 12.144 3.42 12.144C5.004 12.144 6.192 11.22 6.192 9.768C6.192 8.7 5.568 8.04 4.236 7.452L3.336 7.056C2.664 6.756 2.412 6.564 2.412 6.144C2.412 5.652 2.832 5.376 3.396 5.376C3.996 5.376 4.5 5.676 4.908 6.288L6.012 5.436C5.52 4.524 4.608 3.936 3.396 3.936C1.896 3.936 0.768 4.824 0.768 6.18C0.768 7.236 1.476 7.92 2.688 8.46L3.54 8.844C4.296 9.192 4.548 9.36 4.548 9.828C4.548 10.368 4.128 10.704 3.42 10.704C2.556 10.704 1.992 10.26 1.476 9.552L0.36 10.392ZM7.61513 12H9.23513V8.58H12.7391V12H14.3591V4.08H12.7391V7.116H9.23513V4.08H7.61513V12ZM15.7138 8.04C15.6778 10.308 17.6338 12.192 19.9138 12.144C22.1938 12.192 24.1738 10.308 24.1378 8.04C24.1738 5.772 22.1938 3.888 19.9138 3.936C17.6338 3.888 15.6778 5.772 15.7138 8.04ZM22.4698 8.04C22.4698 9.564 21.3778 10.644 19.9258 10.644C18.4618 10.644 17.3818 9.564 17.3818 8.04C17.3818 6.516 18.4618 5.436 19.9258 5.436C21.3778 5.436 22.4698 6.54 22.4698 8.04ZM25.5097 12H27.1297V9.204H28.4857C30.1417 9.204 31.3417 8.148 31.3417 6.636C31.3417 5.112 30.1417 4.08 28.4857 4.08H25.5097V12ZM27.1297 7.788V5.508H28.4857C29.2177 5.508 29.6857 5.964 29.6857 6.636C29.6857 7.32 29.2417 7.788 28.4857 7.788H27.1297ZM40.7587 4.08V8.808L36.1627 3.936H35.6347V12H37.2547V7.248L41.8387 12.144H42.3787V4.08H40.7587ZM43.7333 8.04C43.6973 10.308 45.6533 12.192 47.9333 12.144C50.2133 12.192 52.1933 10.308 52.1573 8.04C52.1933 5.772 50.2133 3.888 47.9333 3.936C45.6533 3.888 43.6973 5.772 43.7333 8.04ZM50.4893 8.04C50.4893 9.564 49.3973 10.644 47.9453 10.644C46.4813 10.644 45.4013 9.564 45.4013 8.04C45.4013 6.516 46.4813 5.436 47.9453 5.436C49.3973 5.436 50.4893 6.54 50.4893 8.04ZM62.7028 4.08L60.9388 8.736L58.8628 3.936H58.3228L56.2468 8.76L54.4828 4.08H52.6828L55.8508 12.144H56.3788L58.5988 7.176L60.8068 12.144H61.3348L64.5028 4.08H62.7028Z" fill="#46A358"/>
</svg>
