<svg width="526" height="119" viewBox="0 0 526 119" fill="none" xmlns="http://www.w3.org/2000/svg">
<path d="M0.62 48H31.77V37.15H12.66V1.8H0.62V48ZM38.0809 48H70.9809V37.15H50.1209V29.1H64.4009V19.02H50.1209V12.65H70.1409V1.8H38.0809V48ZM88.4213 48H100.461V12.65H114.321V1.8H74.5613V12.65H88.4213V48ZM120.334 22.24H129.434L133.984 1.8H120.334V22.24ZM138.704 38.48C142.064 44.85 148.784 48.84 157.114 48.84C166.704 48.84 174.054 43.38 174.054 34.42C174.054 27.91 170.274 23.85 162.224 20.49L156.904 18.25C153.894 17.06 152.914 16.15 152.914 14.47C152.914 12.51 154.524 11.53 157.044 11.53C160.334 11.53 162.434 13.07 164.674 16.43L172.724 10.27C169.924 4.6 164.534 0.959996 156.904 0.959996C147.454 0.959996 140.734 6.42 140.734 14.61C140.734 20.84 144.794 25.18 152.424 28.54L157.184 30.64C160.824 32.25 161.874 32.88 161.874 34.91C161.874 37.15 160.264 38.27 157.114 38.27C152.424 38.27 149.554 35.96 146.824 32.32L138.704 38.48ZM243.693 0.959996L224.023 24.97L204.353 0.959996H200.503V48H212.543V28.68L222.063 39.81H225.913L235.503 28.61V48H247.543V0.959996H243.693ZM285.183 48H298.133L277.133 0.959996H273.283L252.283 48H265.233L266.913 44.15H283.503L285.183 48ZM279.233 34.49H271.183L275.243 23.78L279.233 34.49ZM346.795 48L328.315 23.78L344.205 1.8H330.205L314.945 22.73V1.8H302.905V48H314.945V24.97L332.515 48H346.795ZM351.577 48H384.477V37.15H363.617V29.1H377.897V19.02H363.617V12.65H383.637V1.8H351.577V48ZM436.53 48H449.48L428.48 0.959996H424.63L403.63 48H416.58L418.26 44.15H434.85L436.53 48ZM430.58 34.49H422.53L426.59 23.78L430.58 34.49ZM37.79 104.28C37.79 98.96 34.92 95.18 30.09 93.22C31.98 91.12 32.89 88.53 32.89 85.45C32.89 77.4 26.17 71.8 17.28 71.8H0.62V118H22.18C31.07 118 37.79 112.26 37.79 104.28ZM16.51 81.95C19.38 81.95 21.13 83.56 21.13 86.01C21.13 88.46 19.38 90.07 16.51 90.07H12.17V81.95H16.51ZM26.03 103.79C26.03 106.52 24.28 107.85 21.41 107.85H12.17V99.73H21.41C24.28 99.73 26.03 101.06 26.03 103.79ZM44.3016 118H77.2016V107.15H56.3416V99.1H70.6216V89.02H56.3416V82.65H76.3616V71.8H44.3016V118ZM94.642 118H106.682V82.65H120.542V71.8H80.782V82.65H94.642V118ZM135.794 118H147.834V82.65H161.694V71.8H121.934V82.65H135.794V118ZM167.007 118H199.907V107.15H179.047V99.1H193.327V89.02H179.047V82.65H199.067V71.8H167.007V118ZM248.287 118L236.107 100.85C240.657 98.05 243.387 93.36 243.387 87.69C243.387 78.1 235.827 71.8 225.537 71.8H207.407V118H219.447V103.65H224.417L234.847 118H248.287ZM219.447 82.3H225.607C228.967 82.3 231.137 84.4 231.137 87.69C231.137 90.98 228.967 93.15 225.607 93.15H219.447V82.3Z" fill="#3D3D3D"/>
<path d="M272.69 118H284.73V103.65H290.82C300.9 103.65 308.67 97.14 308.67 87.69C308.67 78.1 301.11 71.8 290.82 71.8H272.69V118ZM284.73 93.15V82.3H290.89C294.25 82.3 296.42 84.4 296.42 87.69C296.42 90.98 294.25 93.15 290.89 93.15H284.73ZM315.21 118H346.36V107.15H327.25V71.8H315.21V118ZM381.091 118H394.041L373.041 70.96H369.191L348.191 118H361.141L362.821 114.15H379.411L381.091 118ZM375.141 104.49H367.091L371.151 93.78L375.141 104.49ZM427.723 71.8V94.9L402.663 70.96H398.813V118H410.853V94.55L435.913 118.84H439.763V71.8H427.723ZM448.989 118H481.889V107.15H461.029V99.1H475.309V89.02H461.029V82.65H481.049V71.8H448.989V118ZM499.33 118H511.37V82.65H525.23V71.8H485.47V82.65H499.33V118Z" fill="#46A358"/>
</svg>
