<svg width="66" height="21" viewBox="0 0 66 21" fill="none" xmlns="http://www.w3.org/2000/svg">
<path d="M25.329 16H31.857V14.48H27.025V5.44H25.329V16ZM32.8929 12.064C32.8449 14.288 34.7809 16.224 37.0369 16.176C39.3249 16.224 41.2609 14.288 41.2129 12.064C41.2609 9.84 39.3249 7.92 37.0369 7.968C34.7809 7.936 32.8449 9.808 32.8929 12.064ZM39.4849 12.08C39.4849 13.504 38.4289 14.624 37.0369 14.624C35.6609 14.624 34.6049 13.536 34.6049 12.08C34.6049 10.624 35.6609 9.504 37.0529 9.504C38.4129 9.504 39.4849 10.624 39.4849 12.08ZM49.2989 8.144V9.264C48.7229 8.448 47.7149 7.968 46.5149 7.968C44.3389 7.968 42.6909 9.616 42.6909 11.904C42.6909 14.192 44.3229 15.84 46.5149 15.84C47.6029 15.84 48.5789 15.44 49.1709 14.72V15.28C49.1709 16.752 48.2429 17.52 46.8189 17.52C45.7469 17.52 44.9469 17.104 44.0669 16.4L43.1389 17.568C44.0829 18.448 45.3629 19.056 46.9149 19.056C49.2989 19.056 50.8509 17.664 50.8509 15.184V8.144H49.2989ZM49.1869 11.888C49.1869 12.688 48.9469 13.296 48.4829 13.728C48.0189 14.16 47.4749 14.368 46.8189 14.368C46.1309 14.368 45.5709 14.144 45.1069 13.696C44.6429 13.232 44.4189 12.64 44.4189 11.904C44.4189 11.184 44.6429 10.592 45.1069 10.144C45.5709 9.696 46.1309 9.472 46.8189 9.472C48.1149 9.472 49.1869 10.288 49.1869 11.888ZM53.2795 16H54.9595V8.144H53.2795V16ZM52.9755 5.216C52.9755 5.84 53.4875 6.32 54.1275 6.32C54.7515 6.32 55.2635 5.84 55.2635 5.216C55.2635 4.592 54.7515 4.096 54.1275 4.096C53.4875 4.096 52.9755 4.592 52.9755 5.216ZM64.2529 11.088C64.2529 9.216 63.1489 7.968 61.3089 7.968C60.3329 7.968 59.5489 8.288 58.9569 8.912V8.144H57.3889V16H59.0689V11.312C59.0689 10.24 59.8209 9.488 60.8609 9.488C61.8849 9.488 62.5729 10.224 62.5729 11.312V16H64.2529V11.088Z" fill="white"/>
<path d="M18.1601 10.1006H8.12598" stroke="white" stroke-width="1.5" stroke-linecap="round" stroke-linejoin="round"/>
<path d="M15.7212 7.67059L18.1612 10.1006L15.7212 12.5306" stroke="white" stroke-width="1.5" stroke-linecap="round" stroke-linejoin="round"/>
<path d="M13.6342 6.35823C13.3592 3.3749 12.2425 2.29156 7.80082 2.29156C1.88332 2.29156 1.88332 4.21656 1.88332 9.9999C1.88332 15.7832 1.88332 17.7082 7.80082 17.7082C12.2425 17.7082 13.3592 16.6249 13.6342 13.6416" stroke="white" stroke-width="1.5" stroke-linecap="round" stroke-linejoin="round"/>
</svg>
